/* XPM */
static char *_bdf0032596444f2cc009837ad7dffa4DXOYluuNOy3NVkIG[] = {
/* columns rows colors chars-per-pixel */
"70 53 256 2 ",
"   c #0D0B0B",
".  c #120D0E",
"X  c #191415",
"o  c #141010",
"O  c #23191C",
"+  c #371512",
"@  c #2D291B",
"#  c #261D24",
"$  c #1C2528",
"%  c #2B2928",
"&  c #34342B",
"*  c #292935",
"=  c #332A35",
"-  c #352B3A",
";  c #362A35",
":  c #2B333D",
">  c #383638",
",  c #332D25",
"<  c #1C1F21",
"1  c #641913",
"2  c #502813",
"3  c #6E3719",
"4  c #483A2B",
"5  c #4D3633",
"6  c #6E2D2A",
"7  c #551A14",
"8  c #3D453E",
"9  c #6A4719",
"0  c #47463B",
"q  c #5B5739",
"w  c #4E4631",
"e  c #7A4926",
"r  c #71552D",
"t  c #706B37",
"y  c #5A551D",
"u  c #2C3D4D",
"i  c #2A3745",
"p  c #373948",
"a  c #2D3E52",
"s  c #333E52",
"d  c #3A2F40",
"f  c #493C4B",
"g  c #6D3C43",
"h  c #37434B",
"j  c #2E4153",
"k  c #334353",
"l  c #3B4454",
"z  c #34455B",
"x  c #394A5A",
"c  c #344953",
"v  c #3B4C64",
"b  c #3E5368",
"n  c #3D5873",
"m  c #474848",
"M  c #57564A",
"N  c #454A58",
"B  c #4A5358",
"V  c #5C5C54",
"C  c #5C5D5B",
"Z  c #555655",
"A  c #534E4E",
"S  c #635D55",
"D  c #72514E",
"F  c #596359",
"G  c #64635D",
"H  c #69665A",
"J  c #746658",
"K  c #71704F",
"L  c #485768",
"P  c #565A66",
"I  c #455D73",
"U  c #5B5E73",
"Y  c #464D63",
"T  c #675B67",
"R  c #715B6C",
"E  c #4A6379",
"W  c #586877",
"Q  c #5A727C",
"!  c #5B6769",
"~  c #656562",
"^  c #6A6663",
"/  c #6B6B64",
"(  c #6D6E6A",
")  c #666967",
"_  c #746D68",
"`  c #6C7269",
"'  c #747266",
"]  c #74736B",
"[  c #79756C",
"{  c #7B796D",
"}  c #78776A",
"|  c #686A78",
" . c #796976",
".. c #6A757A",
"X. c #757572",
"o. c #7C7B72",
"O. c #797777",
"+. c #A92B19",
"@. c #973433",
"#. c #AF3332",
"$. c #8D2816",
"%. c #CE2B32",
"&. c #974F1A",
"*. c #AA541A",
"=. c #B86F1B",
"-. c #8A512D",
";. c #A5502D",
":. c #8C7134",
">. c #AE7132",
",. c #89731F",
"<. c #D2541B",
"1. c #D6711C",
"2. c #E7661A",
"3. c #D77A26",
"4. c #CA712E",
"5. c #E77827",
"6. c #D94D27",
"7. c #B53949",
"8. c #933F56",
"9. c #8E514E",
"0. c #AA525A",
"q. c #93704F",
"w. c #B77647",
"e. c #AA7651",
"r. c #8A5868",
"t. c #B0586A",
"y. c #86786C",
"u. c #95776B",
"i. c #817D72",
"p. c #8A7A7C",
"a. c #8F706F",
"s. c #A9726E",
"d. c #C57647",
"f. c #E47F43",
"g. c #7B8775",
"h. c #918336",
"j. c #B08F34",
"k. c #ABA433",
"l. c #A8871C",
"z. c #DB971E",
"x. c #D0981D",
"c. c #DB9927",
"v. c #CA9739",
"b. c #D99939",
"n. c #CD8D2F",
"m. c #E59927",
"M. c #F49925",
"N. c #E99034",
"B. c #D8A726",
"V. c #D9B629",
"C. c #D8A835",
"Z. c #CCB02F",
"A. c #E6A829",
"S. c #E4B72B",
"D. c #F5B52C",
"F. c #E7A735",
"G. c #E7B936",
"H. c #F5B738",
"J. c #F4A82F",
"K. c #E3931D",
"L. c #D9C72D",
"P. c #DCC732",
"I. c #D5C92F",
"U. c #EAC735",
"Y. c #F2C837",
"T. c #ECD035",
"R. c #93844C",
"E. c #B88558",
"W. c #B38F4D",
"Q. c #838278",
"!. c #96867B",
"~. c #949174",
"^. c #A68977",
"/. c #B48E71",
"(. c #ADB072",
"). c #ADAF58",
"_. c #CD9151",
"`. c #EB8F45",
"'. c #CDAB4C",
"]. c #ECB04C",
"[. c #C5916D",
"{. c #D2A76B",
"}. c #E2AC70",
"|. c #D5CA4A",
" X c #EAD246",
".X c #F2E54A",
"XX c #576B84",
"oX c #5A7487",
"OX c #587191",
"+X c #687689",
"@X c #767887",
"#X c #747C95",
"$X c #68788F",
"%X c #5B71A7",
"&X c #877789",
"*X c #A97893",
"=X c #79878C",
"-X c #6A8398",
";X c #768698",
":X c #768E96",
">X c #788CA5",
",X c #7A94AC",
"<X c #7691AF",
"1X c #77ABD0",
"2X c #868789",
"3X c #988B87",
"4X c #868899",
"5X c #968996",
"6X c #969698",
"7X c #92938C",
"8X c #A28884",
"9X c #A6998A",
"0X c #A59896",
"qX c #B0968D",
"wX c #B7A69A",
"eX c #ABA690",
"rX c #858CA4",
"tX c #8694A6",
"yX c #979AA7",
"uX c #859CB8",
"iX c #979DB3",
"pX c #84A0BC",
"aX c #9BA6B7",
"sX c #95A1AC",
"dX c #A5A5AA",
"fX c #B8AAA7",
"gX c #A8ABB5",
"hX c #ACB2BB",
"jX c #B6B6B9",
"kX c #B8B3A4",
"lX c #A09FA4",
"zX c #CBAA97",
"xX c #C7B7A9",
"cX c #C3B5B1",
"vX c #DDA9A0",
"bX c #CEC4BA",
"nX c #8A9EC5",
"mX c #8CA7C7",
"MX c #92ACCB",
"NX c #98ABC8",
"BX c #99B1CE",
"VX c #9BB4D3",
"CX c #9AB6D6",
"ZX c #91B0D4",
"AX c #A6B5C7",
"SX c #B7BAC3",
"DX c #A1B5D4",
"FX c #A4B9D6",
"GX c #A3BADA",
"HX c #A6BADA",
"JX c #A0BCE1",
"KX c #C3B9C4",
"LX c #C6C5C8",
"PX c #D3CDCC",
"IX c #D8DDE5",
"UX c #E3E5E7",
/* pixels */
"nXmXNXNXDXDXBX%X%X%XnXHXHXDXJXDX1X1XZXJXCXDXHXHXJXHXJXDXGXGXJXFXGXJXFXGXHXHXHXHXHXHXHXHXHXHXGXGXGXFXFXGXCXGXCXCXCXCXVXVXVXCXVXZXZXZXMXMXmXmX",
"nXmXMXBXBXDXDXnX1X<XNXDXDXHXDXDXZXZXJXJXJXCXDXHXDXDXCXDXFXFXFXFXFXFXFXFXJXGXHXGXCXGXHXHXGXGXGXFXGXFXFXFXVXCXCXVXCXCXCXCXVXZXVXZXZXMXMXmXpXmX",
"nXnXMXNXNXBXVXDXZXDXDXDXJXJXDXJXDXDXDXNXDXDXDXDXDXDXDXAXjXhXhXxXjXjXSXAXAXjXxXSXFXCXDXDXGXVXFXCXFXFXBXBXVXVXNXMXMXBXMXMXZXMXMXMXMXZXmXMXmXpX",
"gXiXgXAXAXNXBXVXNXDXNXNXnX&X#X#X#X#XiXfXjXjXjXSXSXSXKXcXbXbXbXzXxXbXbXcXkXkXbXPXPXAXBXDXVXBXaXaXaXaXaXBXMXBXMXMXMXZXmXuXMXZXMXMXMXmXmXpXpXmX",
"qXfXLXbXdXdX6XaXAXgXgXU p s s d d p P @X@X| T T 5X8XzX!.!.xXPXxXxXxXwXxX9XbXPXbXPX7X2X3X7X~.!.3X7X~.5XaXNXNXNXNXmXMXZXZXMXMXNXNX&X#X@X@XtXaX",
"xXjXdX7X6XfX&XyXgX3XX.f l f z f f f @X+XU Y T 2X_ a.!.} H !.7X9XfX0XV  .!.8Xa.6X5X_ [ p.u.0.a.3X7X!.2XyXaXiXaXtX#X>XrX*X5Xt.t.t.0.0.*XlXaXiX",
"hXhXtX2XgXkX0XdXtX3XZ s Y d d d = T Z D R &X:XyX .u.dXdX3X` ` jX) ( i s @XL XX$XOX#X;XrXrX&X;X#X#XrXtXrX=X+X+X| P R 0.7.%.%.%.%.%.%.7.&X%X%X",
"P N 8 i P ! S P Z A f d d * * = = f f S p.m B ` G s.0X2XF M ! LXdX4X+X#XrX<XuXuXuXnXuXnXuXnXmX<XpX<X<X>X>X#X#X#X>XrX*X*Xt.t.0.%.%.%.%.8.XXOX",
"* * * # $ * * * * * * s p s p - = - p B 5 m h F F 9.~.c 8 8 B X.rX>X>X#X-X-X-X-XQ oXXXE E XXoX-XOXOX-X-XOXXXE E OXOX%X>XuX4X@Xr.7.%.%.6 d g ",
"s < * i : p = - i i i Y XXW XXL p - - f l L W W ` R ) 8 c E =X-X$XOXXXI E n n b b n b z z c j j E >X-Xn x x z a k v b I oX>XU +X@X7.#.g 5 f ",
"s d i p Y W f - s s p p Y L W XXP - d p N L P L h : c I =X:X-XQ XXI n n n v v j z z z j j j j I <X-Xv j v z v z u l v b I OXOXU OX9.8. . .O.",
"z s s v U | A - p s s s l L L P W N > - > f m 5 8 Z g.-X-X-XoXE n I I n n z j a a a a z j i c :X-Xx k k z z z z l k Y L L U #X#XR g 9.R X.| ",
"N N s s L P N p p s a s Y L P W #XW p > - d p p P ;X-XoXQ Q oXE I I L L b c u a a i c g.b : -X,XI j c j k z x x l k v v Y L %X4X0.0.0.*Xa.( ",
"Y z l p c U B 5 d s +X&XtX..L P P m > - > - > W :X-XoXoXoXQ Q I L b Y v c j u i i x F g.c L ,XoXj j h j k k k x c h c B L L OX;XR @.@.@.S ..",
"v v j u x Y N - - d N Z m > = = = = ; = - p Q :X-XoXoXQ Q Q W L v v z z k j i i c g.g.F h ,X:Xb j i j j c k j k x h h L L x Q =X=X9.@.6 Z p.",
"s p * = - - = - = - = = = = = & = N Z C N oX-XXXQ Q g.Q Q ! L x s z a a u i i i b g.8 i -XtX7X8 u h j j j j k x c h h c N v oX:X(.~.6 5 X.O.",
"; = = ; ; ; = = = # # # # O < X = | m Z #X$XoXE W _ q.e.r.Z l k j i 8 j j j i v XXW : L mX6X{.M j 8 m M c h h j h : : c E -X7Xg.(.|.M > @XX.",
"; - = = # # O O O O O O X X o % 5 | L N N x l k s 3XvXvXqXr.f p c u j j h j j L E v > 4X4X(.}.q 8 q.).'.q.% $ : c c I +X,X:X(.(.(. Xq.@ m B ",
"# # O O O X X . o o o . . O 5 R.2X4X>X-X$XXXL i * 4XUXyX> & g 5 N h j h h j B ) B * S R.W.].F.>.:.w._._.t < 8 b Q =X~.~.:X~.|.|.|.]._.w m m ",
"O X o . . . . .   . o # A y.7X3X6XrX;X4X-X-X#X+XXX#XdXT f 5 - > i * : : : : i > : c R.]. X XK.>.r :.:.:.B Q -Xg.:X(.|.'.R.C.V.V.F.].W.M A A ",
". . .   .       X * A U #X&X&X@X&XrXrXdXiX#X| +X>XuXrX#X$X>X-XOXXXOXoXW W oX+X$X-X=XW..X.X XC.-.4 5 ! -X-X:Xg.g.g.'.G.G.V.V.S.A.C.b.j.K V A ",
"      . . . . = S _ | @X#X+X$X@X#X#X#X&XrX#XU | =X3X@X#X<X<XrX#X>XrX&X@X,XpXuXuXuXp.'..X.XT.G.'.).g.:X:X..$X` ` R.V.P.G.U.G.F.B.=.9 :.Q.' V ",
". . o o X O f y.a.a.@X+X+X@X+X#X#XXX@XU U U T | tXrX4X;X&X0.r.&X&X0.r.rX<X<XuX<X&Xq._..XT.T.U.C.~.~.:X+X| ' K ` k.U.S.C.F.B.m.v.S 0 q 9X3X~.",
"o o o o O S u.s.a. .&X@X@X@X@X&X@XU +X| | W  .^.8X&Xa.t.t.*XiX8Xt.0.tX<X4X@XuX&Xu.[.e.].V.S.D.Z.Q.+X..) ` q.:.j.A.m.B.G.G.G.C.:.) g.F 9X9X9X",
". . o O _ u.u.u.X.+X .@X&X+X+XXX .p.P P P U a.[.u.rXiXiXgX6Xs.d.0.>X<X3Xa.5X2Xw.!.^.:.e.F.Y.T.D.h.q.h.h.:.B.x.B.z.K.A.c.B.B.j.r @XO.K eX9X9X",
"o X X r e.E.s.r.a. .T R @X| XXR a.r.D 9._ _ e.w.u.yXdX8X&Xs.s.u.:X6X)._.9XyX .w.q.e.w.W.H.D.D.D.S.Z.C.c.V.V.B.z.K.z.z.z.B.V.j.F 2X7XK 9XeX7X",
"O # 5 w._.}.e.R R U T a.R A U D -.u././.[.].].E.8X[.s.8XtXrX&X5XqX].]./.NXiXtXa.q.u._.m.J.D.U.Y.S.S.B.S.U.A.x.B.V.B.V.V.U.L.h.0 @X=XF ( ` g.",
"X . e _.`.{.e.P P T 9.9.g D _ u.3XyXaX[.].}.E.9X{.E.&X&X<X<X*X*XzX].].!.aXtX4Xe.w.W.A.H.U.S.L.S.S.A.G.G.A.c.B.V.V.Z.I.L.Z.Z.y m yX! C T G ` ",
"  X :.3.`._.r.S q.9.0.>.;.9.w.u.iXdXwXs./.qX0X[.].b.w.e.7XsXqXd.zX}.`._././._.N.x.S.A.c.B.z.A.S.A.S.S.z.B.B.V.V.I.P.U.V.S.P.t F =XB V C ! ~ ",
"m D >.*.4.w.9.w.`.f.f.`.`.d././.s.qXqX8X6XiXqX_.N.`.F.}.[./.[.cXSXzX[.].J.].H.M.A.V.A.v.B.A.z.K.m.B.B.z.B.Z.Z.I.I.G.A.G.'.h.& & m A V C C G ",
"J :.>.e 6 -.>.].N.`.`.N.`.d.qX}.E.3X/.s.8X^.w.w.E.[.{.UXIXPX/.wXqX/.[.F.A.b.*.r h.Z.L.L.S.V.B.V.V.B.z.x.x.V.I.T.H.F.v.h.K 0 & F p.T P ! ~ ~ ",
"J >.6 >.&.7 -.n.N.`.`.`.].].N.`.d.d._.[.^.wX0XhXhX4XLXUXIXLX[.^./.w.n.4.-.4 , X   y B.V.V.V.V.V.V.B.x.x.B.B.U.].b.:.q M J / ) { p._ _ ~ ) ~ ",
"H e.;.3 ;.4.e 2 9 n.N.].`.`.d.[.zXwXLXgX4XAXPXIXSX9XPXPXfXE.E.6X/.N.>.w 4 > & & 8 X ,.B.x.x.B.V.x.V.V.S.P. X Xj.t w A M Z V V G / ] X.g.o.i.",
"G q.W.>.2 3 >.>.r @ e v.[./.!.dXhXLXUXLXSXIXUXbX~.[.'.e.3X6XE.u.n.j.4 > , , & % & @ y V.x.x.B.B.V.L.T.T..X|.t q A Z Z V V V G G G ~ / G [ 3X",
") J q.W._.3 2 &.4.v.j.W.wXlXyXLXhXdXhXjXLXSX9Xe.C.G.G.W.6X!.e.E.R.w , , 0 Z ) ~ & % y V.L.L.L.T.I..X.X.Xk.t M V V F S V G S G S G ~ G ^ 2XeX",
"^ J a.0X).b.>.3 7 9 -.r u.y._ 7X2X7X6X6Xy.q.>.C.Y.Y.Y.G.j.e.w.j.q > & A & X M jXF % w k.L.T.T.T..X.X|.h.q M V H F G H G ~ G F ~ G G ~ ) / / ",
"^ J q.fXjX(.{.'.>.e 2 2 9 r :.>.:.>.:.j.n.b.J.H.U.Y.Y.Y.S.=.n.:.& & G O.* & 6XyX` 8 & k.I.T.T. XT.k.t q V C G G G / ^ G G G / G G ^ ^ G ^ F ",
"^ J d.t.cXSXfX(.'.F.3.4.&.$.&.*.n.N.m.m.m.A.A.C.b.m.m.m.K.5.4.w & 8 A O.( 2XjXG ` F 8 k.I.T.T.Z.h.M H F G H H / H / ' / / / / / ) ~ ^ ^ / G ",
"/ ^ w.6.0.5XKXSXwXn.K.M.H.F.N.N.5.5.5.3.N.N.b.b.b.N.N.2.K.M.>.> & V 0 P ..&XO.C lXF 8 |..X|.k.t M F H K / ' ' ' ` / / ' ' ( ' ' ' / / ) ^ G ",
"~ ~ ;.0.@.6  .hXjX_.n.N.m.A.S.H.H.Y.].].]. X].H.D.D.D.J.J.M.r & > A m 7XQ.g.Q.2XkXM 8 ).Z.h.M H F H ` ' ' ' ' ' ' } ] ' ' ' / ' ] / ' / ) ~ ",
") ^ D #.#.6 + f 5Xp.-.>.3.N.M.M.M.J.M.M.M.M.M.D.D.D.Y.Y.A.A.y & > m m jX7X6X2X=XO.8 w K t H J ' ' J ' ' } ' ' _ ' ' ' ' ' { { { o.[ ( / ) ^ ",
"^ S J D @.@.1 + # Z ' i.u.q.>.<.1.5.K.M.M.J.J.D.D.D.D.D.Y.Z.w % 0 ~ dXyX..2XX.LXdX> M K ' ' { { } ' } ' ' } ' [ ' ' ' ' } { i.Q.o.' ' ( / ) ",
"^ ^ S S e #.@.1 + + 5 ^ 2X2X!.q.*.3 >.2.2.2.2.5.A.V.x.Z.P.Z.4 % 5 lX2Xm X.@X6XUX) 0 H ' } y.Q.y.{ ' } } y.' ' ' ' ' ' ' ' } } { [ _ ' ` ( / ",
"^ ^ ^ ~ S D @.+.$.1 + + A p.5X6XW.9 -.2.2.5.N.M.x.l.l.l.L.j.4 % & A > 0 O.2XIX6X> H H ' ' } y.{ Q.} } y.y.} } ' y.Q.i.} { ] ' / ) ] ( ` / ) ",
"^ ^ G ^ T V D -.#.+.$.1 7 6 D s.>.3.3.N.M.c.n.=.=.,.3 ,.V.k.4 & $ m ~ 2XlXtX4X> V ' ] ' ' ' } } ' } R.o.i.{ y.{ y.i.i.{ { X.( ] ` ( / / / / ",
"^ ^ ^ ) T G S S -.#.%.%.+.+.$.&.3.J.S.n.4.=.*.&.$.3 3 3 l.k.@ , $ % Z =XO.B & M ' ' X.[ ' ' ' } ' ' ] { O.[ o.Q.Q.Q.Q.i.{ [ X.{ X.' ` ( ) ~ ",
"^ / ^ ^ ^ ~ ~ C H D 9.6.6.6.<.K.F.c.=.4.>.;.*.+.*.<.<.&.*.l.@ X < X % , & > S ' ' ] [ [ ' ' ' ' } ' ] [ ] [ { { { Q.g.o.{ { o.o.O.o.] / / G ",
"^ ^ ^ ^ ) ^ ^ ^ ^ H J -.0.4.j.v.Z.3.4.4.<.<.<.2.2.1.1.=.,.y @ < < @ > 0 V ' } } { } [ o.{ } ] ' ' ] ' ] ] [ ' ' { Q.o.{ ] X.{ X.[ X.] ` / ^ ",
"/ ^ ^ ^ ( ] ] _ o.[ ' H H K K t t :.j.k.W.v._.v.Z.h.r y , @ & & > m ^ [ { ] { } { o.[ O.{ [ ' ' } } ' ] ] X.{ X.] ] ] ] ] X.O.O.o.] ] o.` ~ ",
"_ _ _ ] [ [ _ O.X.[ ] [ J H S V V M M q M t t q 0 , % @ & 8 h m m A H { g.} o.{ X.o.O.i.i.o.o.[ { Q.i.{ X.{ X.] ( X.X.] ( X.X.{ ] ] ] ` / F ",
"_ ( X.X.o.X.o.O.{ [ X.] ' / ^ H G S F V V M F 0 8 & 8 8 8 m m m M F G { o.o.{ Q.{ o.g.O.[ i.Q.Q.i.i.i.i.{ X.X.] ' ( ] X.] [ ' ( ` ' ' / ) ^ ",
"( ( _ ] X.X.[ ' X.] ] _ ' / / ^ H G H G G G M m 8 0 m h m m B M Z F V / { { i.g.{ { o.o.p.i.o.o.o.X.[ o.{ o.o.` ( ( ( ] ( ( ( / / / ' ) G F ",
"~ / _ ] O.O.O.{ X.X.` ' [ ' ( ) / / / / ) ~ A m m B A B A B M B Z G Z F ( { ] { g.o.o.o.g.O.o.o.o.X.g.o.Q.Q.o.[ ] ( ` ] ' ` ( / / / ) G C F "
};
