/* XPM */
static char *_18[] = {
/* columns rows colors chars-per-pixel */
"64 64 189 2 ",
"   c #020208",
".  c #080C13",
"X  c #1B161A",
"o  c #0F1212",
"O  c #23171C",
"+  c #3A1C10",
"@  c #173706",
"#  c #1E3811",
"$  c #112B09",
"%  c #22321A",
"&  c #1C1A20",
"*  c #251C22",
"=  c #282428",
"-  c #34282C",
";  c #382C33",
":  c #3C3338",
">  c #233329",
",  c #43383A",
"<  c #44241A",
"1  c #57382A",
"2  c #42383C",
"3  c #4F3A39",
"4  c #554A51",
"5  c #1A4607",
"6  c #15450C",
"7  c #264B0C",
"8  c #294917",
"9  c #2B5519",
"0  c #335C1D",
"q  c #33641E",
"w  c #2E5323",
"e  c #375A27",
"r  c #3A6132",
"t  c #396727",
"y  c #3C6936",
"u  c #276524",
"i  c #3F5C39",
"p  c #5E463B",
"a  c #4C592F",
"s  c #654638",
"d  c #6C4F41",
"f  c #426C2B",
"g  c #43702E",
"h  c #476E36",
"j  c #4A7439",
"k  c #55783F",
"l  c #556F38",
"z  c #60773F",
"x  c #626444",
"c  c #667D4A",
"v  c #393E45",
"b  c #473D43",
"n  c #4C4649",
"m  c #346F45",
"M  c #4B4348",
"N  c #53484C",
"B  c #554D52",
"V  c #5B5559",
"C  c #575156",
"Z  c #654D44",
"A  c #69554A",
"S  c #77594B",
"D  c #63595B",
"F  c #755B53",
"G  c #7A625C",
"H  c #4B7544",
"J  c #567A49",
"K  c #5B7D53",
"L  c #517450",
"P  c #7C665A",
"I  c #637D56",
"U  c #71774F",
"Y  c #635D61",
"T  c #4E7A62",
"R  c #676266",
"E  c #7C6C64",
"W  c #74767A",
"Q  c #665A5B",
"!  c #827371",
"~  c #8A8973",
"^  c #595155",
"/  c #655D66",
"(  c #6A5C5A",
")  c #6A8153",
"_  c #67804B",
"`  c #70676D",
"'  c #779283",
"]  c #786C6D",
"[  c #8A7A78",
"{  c #817F7F",
"}  c #C8B9AA",
"|  c #919085",
" . c #896A58",
".. c #97755E",
"X. c #8D7157",
"o. c #816C63",
"O. c #897368",
"+. c #997A67",
"@. c #937B6E",
"#. c #A07F69",
"$. c #9E8373",
"%. c #C8A793",
"&. c #5D8154",
"*. c #548155",
"=. c #62825B",
"-. c #7B815A",
";. c #6A8666",
":. c #728A6D",
">. c #778C76",
",. c #7C907C",
"<. c #7F977A",
"1. c #998478",
"2. c #9A9E7E",
"3. c #8F8A6B",
"4. c #A4826C",
"5. c #A88876",
"6. c #B28D77",
"7. c #B69379",
"8. c #AF937C",
"9. c #BCA18D",
"0. c #7A7E87",
"q. c #7A8784",
"w. c #70968C",
"e. c #74A29C",
"r. c #88888D",
"t. c #859385",
"y. c #8B8B92",
"u. c #979599",
"i. c #92958F",
"p. c #BA9B85",
"a. c #AC9786",
"s. c #B4A48D",
"d. c #9E9CA4",
"f. c #A7A4A9",
"g. c #B8B6BA",
"h. c #B6A9AE",
"j. c #ABA4A2",
"k. c #B0A6AD",
"l. c #C19D82",
"z. c #C6A488",
"x. c #C9AA91",
"c. c #D1AF94",
"v. c #CAB399",
"b. c #D8B698",
"n. c #D3A98B",
"m. c #E3BC9D",
"M. c #FFB08E",
"N. c #DABAA2",
"B. c #E1BEA2",
"V. c #E1C09D",
"C. c #E7C8A9",
"Z. c #ECCDB0",
"A. c #F1CFB5",
"S. c #EFD2B4",
"D. c #F3D4B7",
"F. c #F8CCAF",
"G. c #FFE3BF",
"H. c #FDDEC2",
"J. c #FFE6C6",
"K. c #FFF1CF",
"L. c #FFF5D4",
"P. c #FFFFE6",
"I. c #83787A",
"U. c #85817D",
"Y. c #827273",
"T. c #857A7B",
"R. c #77745E",
"E. c #A5A29B",
"W. c #8C8983",
"Q. c #BAA69F",
"!. c #C0B19C",
"~. c #E1CCB9",
"^. c #979BAA",
"/. c #7C898E",
"(. c #B1A296",
"). c #D5C6B6",
"_. c #978B82",
"`. c #A19D9A",
"'. c #4E373B",
"]. c #998988",
"[. c #ACA877",
"{. c #A8B9D3",
"}. c #BCB8BA",
"|. c #D3D1CE",
" X c #A0A39F",
".X c #BEB39D",
"XX c #BEBDB9",
"oX c None",
"OX c #919B94",
/* pixels */
"oXoXoXoXoXoXoXoXoXoXoXoXoXoXoXoXoXoXoXoXoXoXoXoXoXoXoXoXoXoXoX X'.oX XoXoXoXoXoXoXoXoXoXoXoXoXoXoXoXoXoXoXoXoXoXoXoXoXoXoXoXoXoX",
"oXoXoXoXoXoXoXoXoXoXoXoXoXoXoXoXoXoXoXoXoXoXR.Y.` { { ] ] Q G Y Y Y C n , ` (.R.(.R.R.'.oXoXoXoXoXoXoXoXoXoXoXoXoXoXoXoXoXoXoXoX",
"oXoXoXoXoXoXoXoXoXoXoXoXoXoXoXoXoXoXoX` Q C b 2 b : b b 2 2 2 2 ; 2 b 2 - ; b b 2 2 2 b Q { ^.'.oXoXoXoXoXoXoXoXoXoXoXoXoXoXoXoX",
"oXoXoXoXoXoXoXoXoXoXoXoXoXoXoXoXoX'.n * - ; b 2 ; b : : - - 2 b b ; ; 2 b b b b M b ; : b b b M ` oXoXoXoXoXoXoXoXoXoXoXoXoXoXoX",
"oXoXoXoXoXoXoXoXoXoXoXoXoXoXoXoX Xb * 2 2 2 b - - b ; ; b ; - b b b b b v b b ; v b : b b b M b b n  XoXoXoXoXoXoXoXoXoXoXoXoXoX",
"oXoXoXoXoXoXoXoXoXoXoXoXoXoXoXoXn O 2 2 - ; b b 2 b ; b b 2 2 V b b V b b 2 b b b b b b b b b b b v C oXoXoXoXoXoXoXoXoXoXoXoXoX",
"oXoXoXoXoXoXoXoXoXoXoXoXoXoXoX^ O - ; b - 2 b b b b 2 b D b b D b V V B B b B b M M b b b M v b b b ; Q oXoXoXoXoXoXoXoXoXoXoXoX",
"oXoXoXoXoXoXoXoXoXoXoXoXoXoXR.O - ; - b b b b b b b ; b Y B b D V Y Y V Y V Y Y Y Y B Y V V B b N b : v }.oXoXoXoXoXoXoXoXoXoXoX",
"oXoXoXoXoXoXoXoXoXoXoXoXoXoX4 * 2 ; - b B b b b B B b M R Y N V Y Y Y B Y Y Y Y Y R Y Y Y Y Y B Y N ; - { oXoXoXoXoXoXoXoXoXoXoX",
"oXoXoXoXoXoXoXoXoXoXoXoXoX'.- = ; b ; ; V V b b B B B M V Y B Y Y V V B V Y Y Y V R B N Y Y Y Y V b ; ; C oXoXoXoXoXoXoXoXoXoXoX",
"oXoXoXoXoXoXoXoXoXoXoXoXoXR.* - ; 2 b ; b R b B M B V b b B V V Y B N N M b B Y V Y M M V B Y Y M ; b M b oXoXoXoXoXoXoXoXoXoXoX",
"oXoXoXoXoXoXoXoXoXoXoXoXoXR.X - ; b ; b b b V b M b Y B - b N V Y B B M b b N B V M ; B V b B Y v ; Y b b  XoXoXoXoXoXoXoXoXoXoX",
"oXoXoXoXoXoXoXoXoXoXoXoXoX^ * : = b b v b B B b b b N Y ; * p b B V b b : b b N N - ; V B b b B = b R ; b '.oXoXoXoXoXoXoXoXoXoX",
"oXoXoXoXoXoXoXoXoXoXoXoXoX3 O b : * N b v b b b 2 : ; M M O = : ; v V W - 2 b b ; = b b - b b * * N ; ; B  XoXoXoXoXoXoXoXoXoXoX",
"oXoXoXoXoXoXoXoXoXoXoXoXoX^   * ; ; 2 b b b b b b * * X - O X & . O N.O.  * - * & b b D B 2 V #.b 2 N - { oXoXoXoXoXoXoXoXoXoXoX",
"oXoXoXoXoXoXoXoXoXoXoXoXoX{ 1 8.o.F 1 < Z Z 1 F O.s.p.O.D O.v.3.F a.L.a.F r.5.p.O.N Z  .o.- s #.5.c.b.S '.oXoXoXoXoXoXoXoXoXoXoX",
"oXoXoXoXoXoXoXoXoXoXoXoXoX+.n.J...+ Z S s s s < Z K.L.L.K.G.L.L.K.K.S.J.K.L.K.P.N.+ 1 1 1 s s + < l.m.#.R.oXoXoXoXoXoXoXoXoXoXoX",
"oXoXoXoXoXoXoXoXoXoXoXoX'.+.b.p.s c.D.H.J.D.D.b.h.H.D.D.D.D.S.D.S.Z.H.S.S.A.A.H.Z.x.N.D.G.G.S.Z...S c...{  XoXoXoXoXoXoXoXoXoXoX",
"oXoXoXoXoXoXoXoXoXoXoX9.l.+.n.b.S.G.J.N.O.E a.L.L.A.S.D.D.D.D.D.S.H.H.S.S.D.D.A.D.L.C.1.P 1.D.G.D.b.l.+.P ..~.oXoXoXoXoXoXoXoXoX",
"oXoXoXoXoXoXoXoXoX XR.l.4.+.l.B.C.J.8.* v = . N D.J.D.D.D.D.S.D.H.Z.S.A.A.H.A.Z.J.x.v v o   : C.F.B.n.#.P X.$.oXoXoXoXoXoXoXoXoX",
"oXoXoXoXoXoXoXoXoXoXY.l.+.+.n.b.S.B.= v R v >   E L.D.D.D.D.D.S.Z.Z.S.S.D.D.D.H.A.v M V > =   F D.m.x.4.S X.4.oXoXoXoXoXoXoXoXoX",
"oXoXoXoXoXoXoXoXoXoX{ n.+.+.z.m.G.5.. : v > = . b H.D.D.D.D.D.D.Z.H.H.S.D.D.H.J.s.& v ; = = . ; C.V.z.+.F  .6.oXoXoXoXoXoXoXoXoX",
"oXoXoXoXoXoXoXoXoXoX!.5.#.+.z.b.G.5.  = = & & . : D.D.D.D.D.D.D.Z.H.Z.S.D.D.A.L.a.. = & & &   - B.m.z.4.F  .Q oXoXoXoXoXoXoXoXoX",
"oXoXoXoXoXoXoXoXoXoX X6.+.+.z.b.D.b.X . - = &   A L.D.D.D.D.S.D.S.S.Z.H.D.A.A.H.B.& & > * X   A D.m.n.+.P S Y.oXoXoXoXoXoXoXoXoX",
"oXoXoXoXoXoXoXoXoXoXoX(. .#.z.m.C.H.a.        = C.J.S.S.D.D.D.D.Z.Z.D.A.S.A.D.S.K.5.        - C.A.b.z.#.S @. XoXoXoXoXoXoXoXoXoX",
"oXoXoXoXoXoXoXoXoXoXoXoX{ +.l.m.N.Z.H.x.V p P Z.J.A.S.H.S.D.D.D.C.N.H.A.D.D.D.S.D.G.p.A N P C.D.N.m.z.+.Q '.oXoXoXoXoXoXoXoXoXoX",
"oXoXoXoXoXoXoXoXoXoXoXoXoX+.l.b.B.C.C.J.J.G.J.G.A.A.A.S.D.D.D.Z.N.c.A.D.D.S.A.Z.Z.S.J.G.D.J.D.C.B.b.l...!. XoXoXoXoXoXoXoXoXoXoX",
"oXoXoXoXoXoXoXoXoXoXoXoXoX$.7.b.N.C.C.C.S.S.S.Z.S.S.A.S.D.D.D.V.a.p.Z.D.F.D.D.Z.S.Z.Z.Z.S.C.C.V.N.c.l...R.oXoXoXoXoXoXoXoXoXoXoX",
"oXoXoXoXoXoXoXoXoXoXoXoXoX4 #.c.b.C.C.C.C.C.Z.Z.Z.S.Z.S.Z.Z.Z.Z.C.C.S.Z.Z.S.S.Z.Z.Z.Z.Z.C.C.C.B.b.c.6.F '.oXoXoXoXoXoXoXoXoXoXoX",
"oXoXoXoXoXoXoXoXoXoXoXoXoX(.X.n.b.b.C.C.C.C.C.C.Z.C.C.C.C.Z.C.Z.S.S.C.Z.Z.C.Z.Z.C.Z.C.C.C.C.m.b.c.l...G oXoXoXoXoXoXoXoXoXoXoXoX",
"oXoXoXoXoXoXoXoXoXoXoXoXoXoXO.4.z.c.b.V.C.V.C.C.C.C.C.C.C.V.C.C.V.C.C.V.C.C.V.C.V.V.C.V.b.m.b.n.l.6.S !.oXoXoXoXoXoXoXoXoXoXoXoX",
"oXoXoXoXoXoXoXoXoXoXoXoXoXoXW. .6.p.z.c.c.b.b.b.b.b.b.b.b.b.b.b.b.b.b.b.b.b.b.b.b.b.c.c.c.x.l.7.6. .C oXoXoXoXoXoXoXoXoXoXoXoXoX",
"oXoXoXoXoXoXoXoXoXoXoXoXoXoXoX{  ...l.z.z.z.z.z.z.l.z.z.z.z.z.z.z.z.l.z.l.z.z.z.z.p.z.7.p.7.7.4.S A  XoXoXoXoXoXoXoXoXoXoXoXoXoX",
"oXoXoXoXoXoXoXoXoXoXoXoXoXoXoXoXR.G  .4...+.1.4.4.#.5.4.4.1.4.4.4.4.4.4.4.4.4.4.4.5.4.4.+.X.S P _ '.oXoXoXoXoXoXoXoXoXoXoXoXoXoX",
"oXoXoXoXoXoXoXoXoXoXoXoXoXoXoXoX X XR.^ Q G P A p Z A Z Z Z Z A S A A P F F F A E D Z A d Q ( '.oXoXoXoXoXoXoXoXoXoXoXoXoXoXoXoX",
"oXoXoXoXoXoXoXoXoXoXoXoXoXoXoXoXoXoXoXoXoXoX'.'.'.Y.6 8 9 8 # 8 W v.i.> % % $ /.'.'.'.'.oXoXoXoXoXoXoXoXoXoXoXoXoXoXoXoXoXoXoXoX",
"oXoXoXoXoXoXoXoXoXoXoXoXoXoXoXoXoXoXoXoXoXoXoXoXoX*.q q t t q 7 9 t.t.6 @ 6 $ ^ oXoXoXoXoXoXoXoXoXoXoXoXoXoXoXoXoXoXoXoXoXoXoXoX",
"oXoXoXoXoXoXoXoXoXoXoXoXoXoXoXoXoXoXoXoXoXoXoXoX<.&.*.g J ;.=.k g t t 9 8 @ @ $ R.oXoXoXoXoXoXoXoXoXoXoXoXoXoXoXoXoXoXoXoXoXoXoX",
"oXoXoXoXoXoXoXoXoXoXoXoXoXoXoXoXoXoXoXoXoXoXoX(.>.3.&.f K q.3.:.;.*.t y T T w @ i oXoXoXoXoXoXoXoXoXoXoXoXoXoXoXoXoXoXoXoXoXoXoX",
"oXoXoXoXoXoXoXoXoXoXoXoXoXoXoXoXoXoXoXoXoXoX Xt H ;.&.g J :.w.t.;.J y T w.e.y 7 @ /.oXoXoXoXoXoXoXoXoXoXoXoXoXoXoXoXoXoXoXoXoXoX",
"oXoXoXoXoXoXoXoXoXoXoXoXoXoXoXoXoXoXoXoXoXoX] ;.J =.j h &.=.>.:.=.J J &.m r w 0 @ 8 oXoXoXoXoXoXoXoXoXoXoXoXoXoXoXoXoXoXoXoXoXoX",
"oXoXoXoXoXoXoXoXoXoXoXoXoXoXoXoXoXoXoXoXoX X&.,.=.f q j =.=.;.;.K J &.j 0 7 8 w 8 8  XoXoXoXoXoXoXoXoXoXoXoXoXoXoXoXoXoXoXoXoXoX",
"oXoXoXoXoXoXoXoXoXoXoXoXoXoXoXoXoXoXoXoXoX X=.:.:.*.q k =.;.;.;.=.J J g q 0 w 9 5 i oXoXoXoXoXoXoXoXoXoXoXoXoXoXoXoXoXoXoXoXoXoX",
"oXoXoXoXoXoXoXoXoXoXoXoXoXoXoXoXoXoXoXoXoXoX<.;.t.>.J *.:.t.t.;.=.=.J j t 0 e w @ { oXoXoXoXoXoXoXoXoXoXoXoXoXoXoXoXoXoXoXoXoXoX",
"oXoXoXoXoXoXoXoXoXoXoXoXoXoXoXoXoXoXoXoXoXoX'.t.t.t.=.g H I ;.;.=.I k j k t 7 6 7  XoXoXoXoXoXoXoXoXoXoXoXoXoXoXoXoXoXoXoXoXoXoX",
"oXoXoXoXoXoXoXoXoXoXoXoXoXoXoXoXoXoX X XoXoXoXR.w.w.j t L J &.=.K K K &.j e 8 $ _ oXoXoXoXoXoXoXoXoXoXoXoXoXoXoXoXoXoXoXoXoXoXoX",
"oXoXoXoXoXoXoXoXoXoXoXoXoXoXoXoXoXoX'.'.oXoXoXoX) >.;.a.:.,.i.>.;.;.=.k q t s.z R.oXoXoXoXoXoXoXoXoXoXoXoXoXoXoXoXoXoXoXoXoXoXoX",
"oXoXoXoXoXoXoXoXoXoXoXoXoXoXoXoXoXoX'. XoXoXoXoXoX] v.J.v.L ;.:.;.=.=.J k u n.F. XoXoXoXoXoXoXoXoXoXoXoXoXoXoXoXoXoXoXoXoXoXoXoX",
"oXoXoXoXoXoXoXoXoXoXoXoXoXoXoXoXoXoXoXoXoX'.oXoXoX~.M.F.i.*.g J =.=.&.H t q g 9.oXoXoXoXoXoXoXoXoXoXoXoXoXoXoXoXoXoXoXoXoXoXoXoX",
"oXoXoXoXoXoXoXoXoXoXoXoXoXoXoXoXoXoXoXoXoXoXoXoXoXR.X.;.*.;.&.f q t e 0 t g 5 Y.oXoXoXoXoXoXoXoXoXoXoXoXoXoXoXoXoXoXoXoXoXoXoXoX",
"oXoXoXoXoXoXoXoXoXoXoXoXoXoXoXoXoXoXoXoXoXoXoXoXoXi u J ;.;.;.&.k q 9 f j t 0 '.oXoXoXoXoXoXoXoXoXoXoXoXoXoXoXoXoXoXoXoXoXoXoXoX",
"oXoXoXoXoXoXoXoXoXoXoXoXoXoXoXoXoXoXoXoXoXoXoXoX'.j j &.;.>.;.j t 8 t j j t g  XoXoXoXoXoXoXoXoXoXoXoXoXoXoXoXoXoXoXoXoXoXoXoXoX",
"oXoXoXoXoXoXoXoXoXoXoXoXoXoXoXoXoXoXoXoXoXoXoXoX'.z j &.;.;.g q # 8 J ;.&.q r oXoXoXoXoXoXoXoXoXoXoXoXoXoXoXoXoXoXoXoXoXoXoXoXoX",
"oXoXoXoXoXoXoXoXoXoXoXoXoXoXoXoXoXoXoXoXoXoXoXoXoXk *.=.;.&.q z a 9 &.K *.t a oXoXoXoXoXoXoXoXoXoXoXoXoXoXoXoXoXoXoXoXoXoXoXoXoX",
"oXoXoXoXoXoXoXoXoXoXoXoXoXoXoXoXoXoXoXoXoXoXoXoXoX*.k ;.;.=.9 -.U q ;.;.=.t c oXoXoXoXoXoXoXoXoXoXoXoXoXoXoXoXoXoXoXoXoXoXoXoXoX",
"oXoXoXoXoXoXoXoXoXoXoXoXoXoXoXoXoXoXoXoXoXoXoXoXoXc j ;.:.&.5 :.I 9 ;.:.;.k _ oXoXoXoXoXoXoXoXoXoXoXoXoXoXoXoXoXoXoXoXoXoXoXoXoX",
"oXoXoXoXoXoXoXoXoXoXoXoXoXoXoXoXoXoXoXoXoXoXoXoXoXa H :.:.h 5 2.U 5 J ,.K t ^ oXoXoXoXoXoXoXoXoXoXoXoXoXoXoXoXoXoXoXoXoXoXoXoXoX",
"oXoXoXoXoXoXoXoXoXoXoXoXoXoXoXoXoXoXoXoXoXoXoXoX X0 *.:.;.t 7 2.k q t J I y l  XoXoXoXoXoXoXoXoXoXoXoXoXoXoXoXoXoXoXoXoXoXoXoXoX",
"oXoXoXoXoXoXoXoXoXoXoXoXoXoXoXoXoXoXoXoXoXoXoXoX_ y ;.:.;.t e 3.f &.k t j t 9 '.oXoXoXoXoXoXoXoXoXoXoXoXoXoXoXoXoXoXoXoXoXoXoXoX",
"oXoXoXoXoXoXoXoXoXoXoXoXoXoXoXoXoXoXoXoXoXoXoX!.t :.>.>.:.g f 3.0 &.=.;.:.=.t ~.oXoXoXoXoXoXoXoXoXoXoXoXoXoXoXoXoXoXoXoXoXoXoXoX",
"oXoXoXoXoXoXoXoXoXoXoXoXoXoXoXoXoXoXoXoXoXoX~.u.u.f.g.f.:.q f U 5 g ;.u.g.h.u.d.R.oXoXoXoXoXoXoXoXoXoXoXoXoXoXoXoXoXoXoXoXoXoXoX",
"oXoXoXoXoXoXoXoXoXoXoXoXoXoXoXoXoXoXoXoXoX(.y.y.u.u.d.f.k.t.I U y >.f.h.d.u.u.t.u.I.oXoXoXoXoXoXoXoXoXoXoXoXoXoXoXoXoXoXoXoXoXoX",
"oXoXoXoXoXoXoXoXoXoXoXoXoXoXoXoXoXoXoXoX}.q.W f.g.d.d.t.h.g.g.[ u.d.i.y.d.d.g.f.0.q.'.oXoXoXoXoXoXoXoXoXoXoXoXoXoXoXoXoXoXoXoXoX",
"oXoXoXoXoXoXoXoXoXoXoXoXoXoXoXoXoXoXoXoX!.y.t.f.g.f.f.i.k.[ oXoX XI.j.i.f.d.g.f.u.h.Y.oXoXoXoXoXoXoXoXoXoXoXoXoXoXoXoXoXoXoXoXoX"
};
