/* XPM */
static char *_56[] = {
/* columns rows colors chars-per-pixel */
"64 64 201 2 ",
"   c #05080A",
".  c #0C120D",
"X  c #15110F",
"o  c #0A0D11",
"O  c #0C1314",
"+  c #171719",
"@  c gray13",
"#  c #24181A",
"$  c #002E0A",
"%  c #00350E",
"&  c #1E211F",
"*  c #013A17",
"=  c #083019",
"-  c #25241E",
";  c #1C1E22",
":  c #1C2325",
">  c #1B2F31",
",  c #29282A",
"<  c #372925",
"1  c #2D2D31",
"2  c #302F31",
"3  c #2E3138",
"4  c #343437",
"5  c #2C2D2D",
"6  c #3A393C",
"7  c #333031",
"8  c #252926",
"9  c #404041",
"0  c #353534",
"q  c #454447",
"w  c #323134",
"e  c #191D1A",
"r  c #453A37",
"t  c #49382E",
"y  c #01451B",
"u  c #054926",
"i  c #154D2D",
"p  c #04532C",
"a  c #0D4F31",
"s  c #0B5A35",
"d  c #135938",
"f  c #185B38",
"g  c #0D613A",
"h  c #13633D",
"j  c #246447",
"k  c #22583F",
"l  c #285A40",
"z  c #306146",
"x  c #264B34",
"c  c #53443D",
"v  c #48413E",
"b  c #3B3D42",
"n  c #2D3A47",
"m  c #413F40",
"M  c #105D43",
"N  c #3D4247",
"B  c #295E45",
"V  c #2C5E4A",
"C  c #186A46",
"Z  c #1C714E",
"A  c #166A4D",
"S  c #277855",
"D  c #326E52",
"F  c #1F7F65",
"G  c #4F7E67",
"H  c #43454B",
"J  c #574D49",
"K  c #464B54",
"L  c #585455",
"P  c #515154",
"I  c #604B46",
"U  c #68564D",
"Y  c #665B55",
"T  c #745A52",
"R  c #74584D",
"E  c #516F5E",
"W  c #6E615B",
"Q  c #74645D",
"!  c #777964",
"~  c #5B7467",
"^  c #696564",
"/  c #766967",
"(  c #7F7F7F",
")  c #6E786F",
"_  c #626161",
"`  c #597A69",
"'  c #3A3A3C",
"]  c #515252",
"[  c #3D3D3E",
"{  c #535255",
"}  c #404C47",
"|  c #3C3C3E",
" . c #4F5552",
".. c #253D31",
"X. c #406D54",
"o. c #537B65",
"O. c #5C806F",
"+. c #737E75",
"@. c #648A78",
"#. c #B5AFB1",
"$. c #787D7C",
"%. c #ACA391",
"&. c #84675D",
"*. c #8A6B62",
"=. c #87736C",
"-. c #94776A",
";. c #8C7B76",
":. c #987D71",
">. c #A18171",
",. c #A97472",
"<. c #B67B79",
"1. c #AC8C7B",
"2. c #A28371",
"3. c #C2A597",
"4. c #3A8964",
"5. c #64846F",
"6. c #4A926F",
"7. c #9A8278",
"8. c #948C78",
"9. c #A88A7C",
"0. c #BD9C89",
"q. c #BF9B8B",
"w. c #4E9E82",
"e. c #789886",
"r. c #7E8981",
"t. c #5DB798",
"y. c #75A98E",
"u. c #59C4B5",
"i. c #6FCBAE",
"p. c #6ED3C8",
"a. c #9B8884",
"s. c #959594",
"d. c #AA8D83",
"f. c #AA9187",
"g. c #B9988A",
"h. c #A89593",
"j. c #BB9B90",
"k. c #B8A59A",
"l. c #A9A392",
"z. c #AAA9A8",
"x. c #B6B6B6",
"c. c #A8A9A8",
"v. c #C9A094",
"b. c #CFC8CC",
"n. c #C09B8D",
"m. c #C29E92",
"M. c #D4AD9E",
"N. c #CBA799",
"B. c #D1AB9E",
"V. c #D9B29D",
"C. c #C0A08F",
"Z. c #D1AEA1",
"A. c #D7B4A7",
"S. c #DDBBB3",
"D. c #C8ADA5",
"F. c #E5BBAB",
"G. c #E2BEB6",
"H. c #F2BCA6",
"J. c #E6C4BB",
"K. c #F4C9BA",
"L. c #ECC3AF",
"P. c #D8D7D8",
"I. c #E0E0E1",
"U. c #DBD3D7",
"Y. c #ECCAC2",
"T. c #F3CEC4",
"R. c #F9D4C9",
"E. c #FFDCD3",
"W. c #E4D2DA",
"Q. c #FFE4D8",
"!. c #E9E9EB",
"~. c #FAEDF1",
"^. c #FAF3F4",
"/. c #F8CDC1",
"(. c #4E5151",
"). c #555454",
"_. c #807E81",
"`. c #606061",
"'. c #6A7E70",
"]. c #5C6662",
"[. c #4F4E50",
"{. c #5F5E61",
"}. c #6E7170",
"|. c #918F8F",
" X c #A4A4A0",
".X c #A29489",
"XX c #729080",
"oX c #B3BEB9",
"OX c #85948A",
"+X c #939D98",
"@X c #D0B8A8",
"#X c #CECDCD",
"$X c #737675",
"%X c #9D9D9E",
"&X c #545A59",
"*X c #6E867A",
"=X c #B7B6B6",
"-X c #8A8A8A",
";X c #C3C2C0",
":X c None",
">X c #80A094",
/* pixels */
":X:X:X:X:X:X:X:X:X:X:X:X:X:X:X:X:X:X:X:X:X:X:X:X:X:X:X:X:X:X:X:X:X:X:X:X:X:X:X:X:X:X:X:X:X:X:X:X:X:X:X:X:X:X:X:X:X:X:X:X:X:X:X:X",
":X:X:X:X:X:X:X:X:X:X:X:X:X:X:X:X:X:X:X:X:X:X:X:X:X:X:X-X|.| ..+.] ..[.-X:X:X:X:X:X:X:X:X:X:X:X:X:X:X:X:X:X:X:X:X:X:X:X:X:X:X:X:X",
":X:X:X:X:X:X:X:X:X:X:X:X:X:X:X:X:X:X:X:X:X:X:X:X:X[.q b 3 3 b 1 m b n 4 (.:X:X:X:X:X:X:X:X:X:X:X:X:X:X:X:X:X:X:X:X:X:X:X:X:X:X:X",
":X:X:X:X:X:X:X:X:X:X:X:X:X:X:X:X:X:X:X:X:X:X:X&X6 , , b N N N N K m m n m | :X:X:X:X:X:X:X:X:X:X:X:X:X:X:X:X:X:X:X:X:X:X:X:X:X:X",
":X:X:X:X:X:X:X:X:X:X:X:X:X:X:X:X:X:X:X:X&X`...b b b N K K K K N N b b b K : 6 | -X:X:X:X:X:X:X:X:X:X:X:X:X:X:X:X:X:X:X:X:X:X:X:X",
":X:X:X:X:X:X:X:X:X:X:X:X:X:X:X:X:X:X[.m 4 , 4 K b n K K N b , , , , 3 b m b , , 5 | w ' `.:X:X:X:X:X:X:X:X:X:X:X:X:X:X:X:X:X:X:X",
":X:X:X:X:X:X:X:X:X:X:X:X:X:X:X:X-X0 ; , 4 1 K K 4 b K H , + : 2 3 N m b 4 4 , 2 1 , , , , , `.:X:X:X:X:X:X:X:X:X:X:X:X:X:X:X:X:X",
":X:X:X:X:X:X:X:X:X:X:X:X:X:X:X&X7 + 2 2 , 4 K H 2 H K 1 + + 4 K H H b m 4 2 , , 2 4 b 4 2 , + 0 :X:X:X:X:X:X:X:X:X:X:X:X:X:X:X:X",
":X:X:X:X:X:X:X:X:X:X:X:X:X:X&X, + 4 2 , 2 2 b 4 1 H b : 2 2 , 4 1 4 , 1 1 1 , 3 b 3 4 b 4 2 2 + 6 &X:X:X:X:X:X:X:X:X:X:X:X:X:X:X",
":X:X:X:X:X:X:X:X:X:X:X:X:X:Xw + 4 4 1 1 4 2 4 2 1 m 4 , m 3 ; 1 1 , 1 , , , 2 m K b b 2 2 1 2 2 ; 6 :X:X:X:X:X:X:X:X:X:X:X:X:X:X",
":X:X:X:X:X:X:X:X:X:X:X:X:X[ o 4 2 1 , 2 2 2 4 , 2 b 4 , 4 2 ; ; , , , , , , 4 K K K b 4 4 1 1 1 2 + ' :X:X:X:X:X:X:X:X:X:X:X:X:X",
":X:X:X:X:X:X:X:X:X:X:X:X].+ , 4 2 2 2 1 2 2 2 , 4 b 4 + ; o O O             , n H H b b 4 4 2 1 1 1 # +X:X:X:X:X:X:X:X:X:X:X:X:X",
":X:X:X:X:X:X:X:X:X:X:X:X9 ; 4 4 4 4 1 2 , 2 3 , 4 N 3 , , 4 h.j.;.a./ / L H ,     O ; , , , < 2 , 2 ; + &X:X:X:X:X:X:X:X:X:X:X:X",
":X:X:X:X:X:X:X:X:X:X:X' , 4 4 4 4 , 1 4 m b , , 4 4 3 j.J.T.E.E.E.E.Q.E.E.R.S.;.Y H , O O , 4 4 2 , 2   [ :X:X:X:X:X:X:X:X:X:X:X",
":X:X:X:X:X:X:X:X:X:X .+ 1 2 4 4 3 b b K K 4 1 4 n 1 H T.R.J.G.S.S.S.S.G.G.J.Y.E.E.R.D.a.L 2 O + 2 , 1 , : &X:X:X:X:X:X:X:X:X:X:X",
":X:X:X:X:X:X:X:X:X|.X , 1 2 < 4 H K N b b b b K K , J R.U.S.J.S.S.Y.J.G.J.J.J.J.Y.Y.R.Q.E.A.;.4 o # , 1 + ).:X:X:X:X:X:X:X:X:X:X",
":X:X:X:X:X:X:X:X:X' + 1 1 2 2 m m 3 b b H K K K K   W Q.Y.Y.G.J.J.J.J.J.J.J.J.Y.J.Y.Y.J.J.T.R.A.^ + , 1 + [ :X:X:X:X:X:X:X:X:X:X",
":X:X:X:X:X:X:X:X&X; ; 2 2 1 2 4 4 H K K K m H 4 O , A.R.G.U.Y.Y.J.J.Y.J.Y.J.J.T.E.R.E.Q.E.K.A.A.L.U O 2 , 2 &X:X:X:X:X:X:X:X:X:X",
":X:X:X:X:X:X:X:X:X6 - 4 2 1 1 , 4 H K 3 ; .       f.Q.J.J.Y.Y.Y.Y.J.U.J.J.J.Y.D.h.h.;./ / h.K.V.V.-.+ 2 4 # _ :X:X:X:X:X:X:X:X:X",
":X:X:X:X:X:X:X:X:X[.; 4 2 , , , 3 3 o   , r J 4 H k.T.S.S.G.S.S.G.J.J.G.S.S.T.;.4 P ^ ) Y b L A.V.9.2 , # , + [.:X:X:X:X:X:X:X:X",
":X:X:X:X:X:X:X:X:X[ 1 4 , , , 1 2 o 2 m.F.A.K.T.J.G.A.S.A.S.S.S.S.S.S.S.S.S.A.S.G.R.R.K.Q.K.L Q F.9.b , +   +.&X:X:X:X:X:X:X:X:X",
":X:X:X:X:X:X:X:X-X4 , ; ; , , , + < G.A.Y H L h.T.A.A.A.A.A.A.A.D.A.A.A.A.A.A.G.Y.a.L J ^ S.K.f.N.n.v , , + | :X:X:X:X:X:X:X:X:X",
":X:X:X:X:X:X:X:X&X1 + ; , , , ,   d.Z.3 > N n > a.K.A.Z.A.Z.Z.Z.Z.A.D.Z.Z.A.A.J.;.> n b : N A.L.N.C.c : 4 $.}.:X:X:X:X:X:X:X:X:X",
":X:X:X:X:X:X:X:X&XX ; 1 , : 1   c T./ O b b H 3 r A.A.Z.Z.Z.Z.Z.Z.D.Z.Z.Z.Z.F.N.3 n H b N + / J.N.N.U & c ].:X:X:X:X:X:X:X:X:X:X",
":X:X:X:X:X:X:X:X).o o ; 1 , : + 9.R.U O 4 4 n 3 , g.F.V.B.B.B.N.Z.Z.B.Z.Z.B.F.d.: 4 3 3 4 O W K.D.N.L : T ].:X:X:X:X:X:X:X:X:X:X",
":X:X:X:X:X:X:X:X&X' (.' , , o r V.L.7.  O + +   4 A.V.B.B.B.B.B.N.Z.Z.Z.B.B.F.B.,   & + O O f.L.N.m./ , L &X:X:X:X:X:X:X:X:X:X:X",
":X:X:X:X:X:X:X:X:X:X:X).o ,   Y F.N.A.a.Y Y Y W g.F.B.B.B.B.Z.Z.N.Z.Z.N.N.Z.B.S.d.Y U T Q 9.A.Z.m.m./ 3 4 &X:X:X:X:X:X:X:X:X:X:X",
":X:X:X:X:X:X:X:X:X:X:X[.+ ; o =.F.N.Z.L.K.L.F.L.F.B.B.N.Z.m.Z.N.B.N.Z.N.B.N.Z.N.G.L.G.G.J.L.B.N.N.N./ , 4 &X:X:X:X:X:X:X:X:X:X:X",
":X:X:X:X:X:X:X:X:X:X:X|., O r n.C.N.N.B.B.B.B.B.N.B.B.N.B.Z.Z.n.9.m.Z.B.Z.B.Z.N.B.B.B.B.N.N.N.N.m.n.U : m -X:X:X:X:X:X:X:X:X:X:X",
":X:X:X:X:X:X:X:X:X:X:X&X,   r N.C.m.N.N.N.B.N.N.Z.N.Z.Z.N.n.n.n.<.g.j.n.N.Z.N.Z.B.N.N.N.N.N.N.N.m.n.4   _ :X:X:X:X:X:X:X:X:X:X:X",
":X:X:X:X:X:X:X:X:X:X:X:X..4 _ ,.C.N.N.N.N.N.N.N.N.N.Z.N.g.n.m.m.D.m.m.n.n.N.B.N.N.N.N.N.N.N.N.m.C.9.w o [.:X:X:X:X:X:X:X:X:X:X:X",
":X:X:X:X:X:X:X:X:X:X:X:X].&X[ r 9.g.g.g.C.N.N.N.N.N.m.n.m.Z.Z.Z.Z.Z.B.B.m.m.N.N.N.N.m.m.m.n.g.n.9.r | [.&X:X:X:X:X:X:X:X:X:X:X:X",
":X:X:X:X:X:X:X:X:X:X:X:X:X:X.X| R :.9.f.f.g.g.j.m.m.m.m.N.N.N.N.m.Z.N.N.N.N.C.C.n.n.n.g.d.d.9.-.I ).[.:X:X:X:X:X:X:X:X:X:X:X:X:X",
":X:X:X:X:X:X:X:X:X:X:X:X:X:X:X].X c Y *.-.7.9.9.9.g.g.n.j.m.m.g.d.j.m.g.j.g.g.g.9.9.9.:.-.&.I < 8 :X:X:X:X:X:X:X:X:X:X:X:X:X:X:X",
":X:X:X:X:X:X:X:X:X:X:X:X:X:X:X|   + - < t c I T R T &.*.-.-.-.:.,.-.:.-.-.*.&.R U U I c t , X . 4 ].:X:X:X:X:X:X:X:X:X:X:X:X:X:X",
":X:X:X:X:X:X:X:X:X:X:X:X:X:X:Xl o . # , ; . X X < t - , < t < < < , < t < < ; r # X X X , & , @ X ' :X:X:X:X:X:X:X:X:X:X:X:X:X:X",
":X:X:X:X:X:X:X:X:X:X:X:X:X:X].& [ &X4 4 + +   < ~ d * M s d ;.,.,.<./ p s d * B E + . X o + +.&X@ X &X:X:X:X:X:X:X:X:X:X:X:X:X:X",
":X:X:X:X:X:X:X:X:X:X:X:X:X:X[.| :X].  e | + + ~ A y s M C Z t.i.t.i.w.M C C p u 4.^   8 (.X - :X:X..[.:X:X:X:X:X:X:X:X:X:X:X:X:X",
":X:X:X:X:X:X:X:X:X:X:X:X:X:X:X:X:X7 # :X].5 _ h s a u d p y 4.p.u.u.M u a s u a s D H 0 :X[.  0 :X:X:X:X:X:X:X:X:X:X:X:X:X:X:X:X",
":X:X:X:X:X:X:X:X:X:X:X:X:X:X:X:X&X[ &X:X:X:X$.y A a p g g p y l.^.r.y p s s p a C u +X:X:X:X|.z -X:X:X:X:X:X:X:X:X:X:X:X:X:X:X:X",
":X:X:X:X:X:X:X:X:X:X:X:X:X:X:X:X:X:X:X:X:X-XD C C i p g h h p i 5.a g 4.S 4.C u Z u z :X:X:X:X:X:X:X:X:X:X:X:X:X:X:X:X:X:X:X:X:X",
":X:X:X:X:X:X:X:X:X:X:X:X:X:X:X:X:X:X:X:X:X[.p Z C i p h s d h i * p h 6.4.y.E u Z g S -X:X:X:X:X:X:X:X:X:X:X:X:X:X:X:X:X:X:X:X:X",
":X:X:X:X:X:X:X:X:X:X:X:X:X:X:X:X:X:X:X:X:Xo.y C h y u g h s d s u s g g C C d u h h h [.:X:X:X:X:X:X:X:X:X:X:X:X:X:X:X:X:X:X:X:X",
":X:X:X:X:X:X:X:X:X:X:X:X:X:X:X:X:X:X:X:X:X} y C h y i g s h h s u g g s s p u y h Z g +X:X:X:X:X:X:X:X:X:X:X:X:X:X:X:X:X:X:X:X:X",
":X:X:X:X:X:X:X:X:X:X:X:X:X:X:X:X:X:X:X:X:XX.g Z s i d h h h h h a h d d h C u i g C u XX:X:X:X:X:X:X:X:X:X:X:X:X:X:X:X:X:X:X:X:X",
":X:X:X:X:X:X:X:X:X:X:X:X:X:X:X:X:X:X:X:X:XV p h s z i g h h h B d C C d C s k z p C g } :X:X:X:X:X:X:X:X:X:X:X:X:X:X:X:X:X:X:X:X",
":X:X:X:X:X:X:X:X:X:X:X:X:X:X:X:X:X:X:X:X-Xs s g p o.f g h C Z C d Z Z C C p z o.u g p k :X:X:X:X:X:X:X:X:X:X:X:X:X:X:X:X:X:X:X:X",
":X:X:X:X:X:X:X:X:X:X:X:X:X:X:X:X:X:X:X:X].y s p i | i h C C Z C d Z Z S C s k o.* p p p -X:X:X:X:X:X:X:X:X:X:X:X:X:X:X:X:X:X:X:X",
":X:X:X:X:X:X:X:X:X:X:X:X:X:X:X:X:X:X:X:X-Xl.C.0._ &XC Z C Z S Z d S Z C C h 4.&X5.V.K.+.:X:X:X:X:X:X:X:X:X:X:X:X:X:X:X:X:X:X:X:X",
":X:X:X:X:X:X:X:X:X:X:X:X:X:X:X:X:X:X:X:X:XM.K.L./.:XV p C Z C C d Z C C D x O.:X1.L.K.$.:X:X:X:X:X:X:X:X:X:X:X:X:X:X:X:X:X:X:X:X",
":X:X:X:X:X:X:X:X:X:X:X:X:X:X:X:X:X:X:X:X-XB.0.q.%.-XD y h C Z h h h C C C y { :Xq.8.N.+.:X:X:X:X:X:X:X:X:X:X:X:X:X:X:X:X:X:X:X:X",
":X:X:X:X:X:X:X:X:X:X:X:X:X:X:X:X:X:X:X:X:XC.+X].%.-XB p h h s d p s s h h y 4.-Xq.:Xc.v.:X:X:X:X:X:X:X:X:X:X:X:X:X:X:X:X:X:X:X:X",
":X:X:X:X:X:X:X:X:X:X:X:X:X:X:X:X:X:X:X:X:XZ.+X:X-X].B p h h y = e y d h h y 4.-X:X:X%.q.:X:X:X:X:X:X:X:X:X:X:X:X:X:X:X:X:X:X:X:X",
":X:X:X:X:X:X:X:X:X:X:X:X:X:X:X:X:X:X:X:X:X).$X:X:X(.i s h h p k [.s h h h p V -X:X:X(.(.:X:X:X:X:X:X:X:X:X:X:X:X:X:X:X:X:X:X:X:X",
":X:X:X:X:X:X:X:X:X:X:X:X:X:X:X:X:X:X:X:X:X:X:X:X:X_.4.h h h y z :Xi p h C p 5.-X:X:X:X:X:X:X:X:X:X:X:X:X:X:X:X:X:X:X:X:X:X:X:X:X",
":X:X:X:X:X:X:X:X:X:X:X:X:X:X:X:X:X:X:X:X:X:X:X:X:X .D h h h y o.:Xl y h h h x &X:X:X:X:X:X:X:X:X:X:X:X:X:X:X:X:X:X:X:X:X:X:X:X:X",
":X:X:X:X:X:X:X:X:X:X:X:X:X:X:X:X:X:X:X:X:X:X:X:X:XXXu s C s u XX:XX.u d h p d -X:X:X:X:X:X:X:X:X:X:X:X:X:X:X:X:X:X:X:X:X:X:X:X:X",
":X:X:X:X:X:X:X:X:X:X:X:X:X:X:X:X:X:X:X:X:X:X:X:X:X+Xu d h s y OX:XX.y h h p B &X:X:X:X:X:X:X:X:X:X:X:X:X:X:X:X:X:X:X:X:X:X:X:X:X",
":X:X:X:X:X:X:X:X:X:X:X:X:X:X:X:X:X:X:X:X:X:X:X:X:X+Xa p g s * [.:X .* h h p d &X:X:X:X:X:X:X:X:X:X:X:X:X:X:X:X:X:X:X:X:X:X:X:X:X",
":X:X:X:X:X:X:X:X:X:X:X:X:X:X:X:X:X:X:X:X:X:X:X:X:X$.y y y y * ].:XXX% y y y E [.:X:X:X:X:X:X:X:X:X:X:X:X:X:X:X:X:X:X:X:X:X:X:X:X",
":X:X:X:X:X:X:X:X:X:X:X:X:X:X:X:X:X:X:X:X:X:X:X:X:X&X5.s.e.5.x &X:X[.x 5.5.s.` :X:X:X:X:X:X:X:X:X:X:X:X:X:X:X:X:X:X:X:X:X:X:X:X:X",
":X:X:X:X:X:X:X:X:X:X:X:X:X:X:X:X:X:X:X:X:X:X:X:X:X&XU.^.!.U.+X:X:X:X+.W.^.^.c.-X:X:X:X:X:X:X:X:X:X:X:X:X:X:X:X:X:X:X:X:X:X:X:X:X",
":X:X:X:X:X:X:X:X:X:X:X:X:X:X:X:X:X:X:X:X:X:X:X:X).!.^.!.U.z./.:X:X:Xc.x.P.^.^.^.&X:X:X:X:X:X:X:X:X:X:X:X:X:X:X:X:X:X:X:X:X:X:X:X",
":X:X:X:X:X:X:X:X:X:X:X:X:X:X:X:X:X:X:X:X:X:X:X:Xb.!.I.I.z.r.c.:X:X-Xh.5.z.I.I.P./.:X:X:X:X:X:X:X:X:X:X:X:X:X:X:X:X:X:X:X:X:X:X:X"
};
